<svg width="150" height="28" viewBox="0 0 150 28" fill="none" xmlns="http://www.w3.org/2000/svg">
    <path d="M54.992 12.92C55.952 13.512 56.576 14.44 56.576 15.736C56.576 17.624 55.472 19 52.928 19H42.688V7.80001H52.544C55.088 7.80001 55.872 9.09601 55.872 10.744C55.872 11.528 55.552 12.296 54.992 12.92ZM45.568 9.88001V12.2H51.504H51.52C52.288 12.2 52.992 12.2 52.992 11.032C52.992 9.88001 52.288 9.88001 51.504 9.88001H45.568ZM52.224 16.776C52.992 16.776 53.696 16.776 53.696 15.592C53.696 14.408 52.992 14.408 52.224 14.408H45.568V16.776H52.224Z" fill="black"/>
    <path d="M57.7036 6.20001H60.4396V8.58401H57.7036V6.20001ZM57.7036 9.57601H60.4396V19H57.7036V9.57601Z" fill="black"/>
    <path d="M72.667 9.57601V11.864L65.611 16.712H72.667V19H61.563V16.712L68.619 11.864H61.563V9.57601H72.667Z" fill="black"/>
    <path d="M89.5839 9.41601C92.0959 9.41601 94.4479 10.312 94.4799 13.784L94.4479 19H91.6959V14.824C91.6959 12.824 91.0239 11.784 88.7679 11.784C86.9279 11.784 84.9439 12.728 84.0959 13.72V19H81.3599V9.57601H84.0959V11.224C85.4399 10.168 87.2959 9.41601 89.5839 9.41601Z" fill="black"/>
    <path d="M101.802 16.936C103.69 16.936 104.842 16.584 105.53 15.624H108.25C107.626 18.024 105.29 19.16 101.802 19.16C98.2182 19.16 95.4342 17.752 95.4342 14.296C95.4342 10.824 98.1382 9.41601 101.962 9.41601C105.546 9.41601 108.41 10.648 108.41 14.936H98.2342C98.5382 16.44 99.9782 16.936 101.802 16.936ZM101.946 11.496C100.074 11.496 98.7622 11.864 98.3302 13.192H105.482C105.018 11.864 103.674 11.496 101.946 11.496Z" fill="black"/>
    <path d="M107.544 19L112.84 14.296L107.544 9.57601H111.224L114.68 12.696L118.136 9.57601H121.816L116.504 14.296L121.816 19H118.136L114.68 15.88L111.224 19H107.544Z" fill="black"/>
    <path d="M132.556 9.57601H135.292V19H132.556V17.352C131.212 18.408 129.356 19.16 127.068 19.16C124.556 19.16 122.204 18.264 122.172 14.792L122.204 9.57601H124.956V13.752C124.956 15.752 125.628 16.792 127.884 16.792C129.724 16.792 131.708 15.848 132.556 14.856V9.57601Z" fill="black"/>
    <path d="M136.34 15.688H139.076C139.076 16.696 140.116 17.08 143.172 17.08C146.132 17.08 146.612 16.888 146.612 16.152C146.612 15.432 146.164 15.384 142.852 15.176C138.708 14.936 136.676 14.616 136.676 12.344C136.676 9.88001 139.556 9.41601 142.916 9.41601C146.468 9.41601 149.044 9.88001 149.044 12.472H146.292C146.292 11.688 145.3 11.496 142.756 11.496C140.164 11.496 139.428 11.688 139.428 12.232C139.428 12.824 139.924 12.92 143.172 13.16C146.852 13.432 149.364 13.528 149.364 16.04C149.364 18.696 146.964 19.16 143.332 19.16C139.7 19.16 136.34 18.696 136.34 15.688Z" fill="black"/>
    <path fill-rule="evenodd" clip-rule="evenodd" d="M3.11111 21.7778V18.6667H0V21.7778C0 23.428 0.655553 25.0107 1.82245 26.1776C2.98934 27.3444 4.57199 28 6.22222 28H10.8889V24.8889H6.22222C4.58889 24.8889 3.11111 23.4173 3.11111 21.7778ZM9.33333 0H0V15.5556H9.33333C10.2341 15.5552 11.1154 15.2943 11.8711 14.8041C12.6268 14.314 13.2245 13.6156 13.5921 12.7933C13.9596 11.971 14.0814 11.0599 13.9426 10.1699C13.8038 9.27993 13.4105 8.44914 12.81 7.77778C13.4105 7.10642 13.8038 6.27563 13.9426 5.38566C14.0814 4.49569 13.9596 3.58458 13.5921 2.76227C13.2245 1.93996 12.6268 1.24159 11.8711 0.751446C11.1154 0.2613 10.2341 0.0003206 9.33333 0ZM3.11111 9.33333H9.33333C9.74589 9.33333 10.1416 9.49722 10.4333 9.78895C10.725 10.0807 10.8889 10.4763 10.8889 10.8889C10.8889 11.3014 10.725 11.6971 10.4333 11.9888C10.1416 12.2806 9.74589 12.4444 9.33333 12.4444H3.11111V9.33333ZM26.1776 1.82245C25.0107 0.655553 23.428 0 21.7778 0H17.1111V3.11111H21.7778C22.6029 3.11111 23.3942 3.43889 23.9777 4.02233C24.5611 4.60578 24.8889 5.3971 24.8889 6.22222V9.33333H28V6.22222C28 4.57199 27.3444 2.98934 26.1776 1.82245ZM3.11111 3.11111H9.33333C9.74589 3.11111 10.1416 3.275 10.4333 3.56672C10.725 3.85845 10.8889 4.25411 10.8889 4.66667C10.8889 5.07923 10.725 5.47489 10.4333 5.76661C10.1416 6.05833 9.74589 6.22222 9.33333 6.22222H3.11111V3.11111ZM15.6415 25.5879V27.825H27.8623V24.5711H20.8163L27.8915 15.187V12.95H15.6707V16.2039H22.7167L15.6415 25.5879Z" fill="#766AFF"/>
</svg>
